<?xml version="1.0" encoding="UTF-8"?>
<svg xmlns="http://www.w3.org/2000/svg" xmlns:inkscape="http://www.inkscape.org/namespaces/inkscape" xmlns:sodipodi="http://sodipodi.sourceforge.net/DTD/sodipodi-0.dtd" width="1200px" height="675px" viewBox="0 0 1200 675" version="1.1" inkscape:version="inkscape-cli 1.0"><defs /><sodipodi:namedview id="namedview1" inkscape:document-units="px" pagecolor="#ffffff" bordercolor="#666666" /><rect id="background" width="1200" height="675" x="0" y="0" style="fill:#ffffff;stroke:none" /><g id="layer1" inkscape:groupmode="layer" inkscape:label="Layer 1"><rect id="rect1" style="fill:#0d0d1a" x="0" y="0" width="1200" height="675" rx="0" ry="0" /><rect id="rect2" style="fill:#00d4ff" x="0" y="0" width="1200" height="5" rx="0" ry="0" /><rect id="rect3" style="fill:#00d4ff" x="0" y="670" width="1200" height="5" rx="0" ry="0" /><circle id="circle4" style="fill:none;stroke:#00d4ff;stroke-width:1.5;opacity:0.25" cx="950" cy="337" r="290" /><circle id="circle5" style="fill:none;stroke:#00d4ff;stroke-width:1;opacity:0.18" cx="950" cy="337" r="210" /><circle id="circle6" style="fill:#00d4ff;opacity:0.07" cx="950" cy="337" r="140" /><circle id="circle7" style="fill:#00d4ff;opacity:0.06" cx="950" cy="337" r="80" /><circle id="circle8" style="fill:#00d4ff;opacity:0.92" cx="950" cy="337" r="48" /><rect id="rect9" style="fill:none;stroke:#00d4ff;stroke-width:1.5" x="55" y="50" width="20" height="20" rx="3" ry="0" /><rect id="rect10" style="fill:none;stroke:#00d4ff;stroke-width:1.5" x="1125" y="50" width="20" height="20" rx="3" ry="0" /><rect id="rect11" style="fill:none;stroke:#00d4ff;stroke-width:1.5" x="55" y="605" width="20" height="20" rx="3" ry="0" /><rect id="rect12" style="fill:none;stroke:#00d4ff;stroke-width:1.5" x="1125" y="605" width="20" height="20" rx="3" ry="0" /><rect id="rect13" style="fill:#00d4ff;opacity:0.75" x="60" y="80" width="4" height="110" rx="0" ry="0" /><rect id="rect14" style="fill:#00d4ff;opacity:0.38" x="72" y="100" width="2" height="75" rx="0" ry="0" /><rect id="rect15" style="fill:#00d4ff;opacity:0.35" x="95" y="298" width="530" height="1" rx="0" ry="0" /><text id="text16" style="font-family:Arial;font-size:96px;font-weight:bold;font-style:normal;fill:#ffffff;text-anchor:start" x="100" y="240">CLI-Anything</text><text id="text17" style="font-family:Arial;font-size:28px;font-weight:normal;font-style:normal;fill:#00d4ff;text-anchor:start" x="100" y="285">Making ALL Software Agent-Native</text><text id="text18" style="font-family:Arial;font-size:22px;font-weight:normal;font-style:normal;fill:#8888aa;text-anchor:start" x="100" y="355">One command. Any software. Full agent control.</text><rect id="rect19" style="fill:#00d4ff;opacity:0.18;stroke:#00d4ff;stroke-width:1.5" x="95" y="408" width="148" height="40" rx="20" ry="0" /><text id="text20" style="font-family:Arial;font-size:16px;font-weight:bold;font-style:normal;fill:#00d4ff;text-anchor:middle" x="169" y="434">MIT License</text><rect id="rect21" style="fill:#00d4ff;opacity:0.18;stroke:#00d4ff;stroke-width:1.5" x="258" y="408" width="138" height="40" rx="20" ry="0" /><text id="text22" style="font-family:Arial;font-size:16px;font-weight:bold;font-style:normal;fill:#00d4ff;text-anchor:middle" x="327" y="434">14k+ Stars</text><rect id="rect23" style="fill:#e94560;opacity:0.18;stroke:#e94560;stroke-width:1.5" x="410" y="408" width="155" height="40" rx="20" ry="0" /><text id="text24" style="font-family:Arial;font-size:16px;font-weight:bold;font-style:normal;fill:#e94560;text-anchor:middle" x="487" y="434">1508 Tests</text><rect id="rect25" style="fill:#a78bfa;opacity:0.18;stroke:#a78bfa;stroke-width:1.5" x="580" y="408" width="138" height="40" rx="20" ry="0" /><text id="text26" style="font-family:Arial;font-size:16px;font-weight:bold;font-style:normal;fill:#a78bfa;text-anchor:middle" x="649" y="434">Python CLI</text><text id="text27" style="font-family:Arial;font-size:17px;font-weight:normal;font-style:normal;fill:#556677;text-anchor:start" x="100" y="560">github.com/HKUDS/CLI-Anything</text><text id="text28" style="font-family:Arial;font-size:15px;font-weight:normal;font-style:normal;fill:#445566;text-anchor:start" x="100" y="585">HKUDS Lab  ·  2026  ·  MIT License</text><text id="text29" style="font-family:Arial;font-size:42px;font-weight:bold;font-style:normal;fill:#0a0a18;text-anchor:middle" x="950" y="355">AI</text></g></svg>